<svg fill="none" height="512" viewBox="0 0 512 512" width="512" xmlns="http://www.w3.org/2000/svg"><g fill="#000"><path d="m472.895 439.478h-24.06v72.336h24.06z"/><path d="m448.839 415.417h-24.217v24.06h24.217z"/><path d="m424.622 439.478h-24.06v24.059h24.06z"/><path d="m424.622 391.204h-24.06v24.218h24.06z"/><path d="m400.558 463.538h-24.217v24.217h24.217z"/><path d="m400.558 367.145h-48.277v24.059h48.277z"/><path d="m400.558 174.189h-24.217v72.336h24.217z"/><path d="m376.34 487.75h-24.059v24.06h24.059z"/><path d="m376.34 246.529h-24.059v24.06h24.059z"/><path d="m376.347 149.975h-48.118v24.218h48.118z"/><path d="m352.288 391.204h-24.059v24.218h24.059z"/><path d="m352.284 342.922h-48.277v24.218h48.277z"/><path d="m352.288 270.589h-24.059v24.217h24.059z"/><path d="m328.224 415.417h-24.217v24.06h24.217z"/><path d="m328.224 294.803h-24.217v24.059h24.217z"/><path d="m328.224 174.189h-24.217v24.06h24.217z"/><path d="m304.006 439.478h-24.059v24.059h24.059z"/><path d="m304.006 318.863h-24.059v24.059h24.059z"/><path d="m304.006 198.249h-24.059v24.059h24.059z"/><path d="m279.947 342.922h-24.059v24.218h24.059z"/><path d="m279.947 222.309h-24.059v24.217h24.059z"/><path d="m255.891 367.145h-24.218v24.059h24.218z"/><path d="m255.891 246.529h-24.218v24.06h24.218z"/><path d="m231.673 270.589h-24.059v24.217h24.059z"/><path d="m231.673 198.249h-24.059v48.277h24.059z"/><path d="m207.611 294.803h-24.218v24.059h24.218z"/><path d="m207.61 174.189h-72.336v24.06h72.336z"/><path d="m159.333 270.589h-24.059v96.553h24.059v-24.217h24.059v-24.059h-24.059z"/><path d="m135.277 367.145h-24.217v24.059h24.217z"/><path d="m135.277 198.249h-24.217v72.336h24.217z"/><path d="m111.059 391.204h-24.059v120.613h24.059z"/><path d="m190.933 23v23.9475h-23.933v48.0525h23.933v24.105h24.089v23.948h23.933v23.947h24.09v-23.947h23.933v-23.948h23.932v-24.105h24.09v-48.0525h-24.09v-23.9475h-47.865v23.9475h-24.09v-23.9475z"/></g></svg>